<svg width="950" height="348" viewBox="0 0 950 348" fill="none" xmlns="http://www.w3.org/2000/svg">
<rect x="2" y="47" width="215" height="224" fill="#F0F0F0"/>
<rect x="245" y="47" width="215" height="224" fill="#F0F0F0"/>
<rect x="490" y="47" width="215" height="224" fill="#F0F0F0"/>
<rect opacity="0.5" x="2" y="292" width="176" height="25" rx="12.5" fill="#F0F0F0"/>
<rect opacity="0.5" x="247" y="292" width="176" height="25" rx="12.5" fill="#F0F0F0"/>
<rect opacity="0.5" x="492" y="292" width="176" height="25" rx="12.5" fill="#F0F0F0"/>
<rect opacity="0.5" x="2" y="323" width="133" height="25" rx="12.5" fill="#F0F0F0"/>
<rect opacity="0.5" x="247" y="323" width="133" height="25" rx="12.5" fill="#F0F0F0"/>
<rect opacity="0.5" x="492" y="323" width="133" height="25" rx="12.5" fill="#F0F0F0"/>
<rect width="118" height="36" fill="black" fill-opacity="0.01"/>
<path d="M28.5484 15.9598C22.777 12.5248 13.2583 12.2083 7.74865 13.8838C7.53758 13.9471 7.31596 13.9684 7.09654 13.9465C6.87713 13.9246 6.66426 13.8598 6.47021 13.7559C6.27615 13.652 6.10474 13.5111 5.96586 13.3413C5.82697 13.1714 5.72335 12.976 5.66096 12.7663C5.53074 12.342 5.57484 11.8839 5.78366 11.4917C5.99249 11.0995 6.34912 10.805 6.77591 10.6723C13.0995 8.74778 23.6136 9.11978 30.2579 13.0723C31.0537 13.5463 31.3154 14.5753 30.8434 15.3718C30.7328 15.561 30.5853 15.7265 30.4097 15.8587C30.234 15.9909 30.0335 16.0872 29.82 16.1419C29.6064 16.1966 29.3841 16.2087 29.1658 16.1774C28.9475 16.1461 28.7376 16.0722 28.5484 15.9598ZM28.3593 21.0478C28.2646 21.2039 28.1396 21.3399 27.9915 21.4478C27.8434 21.5556 27.6752 21.6332 27.4966 21.6761C27.3179 21.7189 27.1325 21.7261 26.9511 21.6973C26.7696 21.6685 26.5957 21.6043 26.4396 21.5083C21.6288 18.5428 14.2916 17.6848 8.59886 19.4173C8.42275 19.47 8.23786 19.4877 8.05483 19.4693C7.8718 19.4509 7.69426 19.3968 7.53241 19.3101C7.37057 19.2233 7.22762 19.1057 7.11181 18.964C6.99599 18.8223 6.9096 18.6593 6.8576 18.4843C6.75004 18.1306 6.78739 17.7492 6.96155 17.4226C7.1357 17.0961 7.43264 16.8507 7.78798 16.7398C14.2901 14.7613 22.3746 15.7198 27.9009 19.1248C28.556 19.5298 28.7632 20.3908 28.3593 21.0478ZM26.1688 25.9333C26.0935 26.0585 25.9939 26.1676 25.8758 26.2543C25.7576 26.341 25.6232 26.4034 25.4804 26.4381C25.3376 26.4727 25.1893 26.4788 25.0441 26.456C24.8989 26.4332 24.7598 26.382 24.6348 26.3053C20.4291 23.7298 15.1388 23.1478 8.90596 24.5758C8.76249 24.6081 8.614 24.6119 8.46904 24.587C8.32408 24.5621 8.18553 24.509 8.06135 24.4308C7.93718 24.3526 7.82985 24.2508 7.74554 24.1312C7.66124 24.0117 7.60162 23.8768 7.57014 23.7343C7.50297 23.4463 7.55361 23.1437 7.71097 22.8926C7.86833 22.6416 8.11959 22.4626 8.40975 22.3948C15.2295 20.8318 21.0796 21.5053 25.7996 24.3958C26.0527 24.5525 26.2333 24.8017 26.3024 25.0894C26.3714 25.3772 26.3234 25.6804 26.1688 25.9333ZM17.9587 0.0507812C8.06937 0.0507812 0.0544434 8.08478 0.0544434 17.9953C0.0544434 27.9073 8.06937 35.9398 17.9587 35.9398C27.8465 35.9398 35.8629 27.9073 35.8629 17.9953C35.8629 8.08478 27.8465 0.0507812 17.9572 0.0507812H17.9587ZM48.7643 16.6168C45.6736 15.8773 45.1229 15.3598 45.1229 14.2693C45.1229 13.2403 46.0911 12.5473 47.5283 12.5473C48.9216 12.5473 50.3043 13.0738 51.7536 14.1568C51.7975 14.1898 51.8519 14.2018 51.9064 14.1943C51.933 14.1902 51.9586 14.1807 51.9815 14.1665C52.0043 14.1524 52.0241 14.1337 52.0395 14.1118L53.5493 11.9788C53.5791 11.9365 53.5918 11.8846 53.5847 11.8335C53.5777 11.7823 53.5516 11.7357 53.5115 11.7028C51.7869 10.3153 49.8444 9.64178 47.5737 9.64178C44.2364 9.64178 41.9051 11.6488 41.9051 14.5213C41.9051 17.6023 43.9172 18.6913 47.3921 19.5343C50.3497 20.2168 50.8489 20.7898 50.8489 21.8128C50.8489 22.9453 49.8399 23.6503 48.2151 23.6503C46.4103 23.6503 44.9383 23.0413 43.2924 21.6118C43.2723 21.594 43.2487 21.5805 43.2232 21.5719C43.1977 21.5634 43.1707 21.5601 43.1438 21.5622C43.117 21.5643 43.0908 21.5718 43.067 21.5842C43.0431 21.5966 43.022 21.6136 43.0049 21.6343L41.3121 23.6533C41.2776 23.6936 41.2604 23.7456 41.2641 23.7982C41.2678 23.8509 41.292 23.9001 41.3318 23.9353C43.2485 25.6498 45.604 26.5543 48.1455 26.5543C51.743 26.5543 54.0667 24.5848 54.0667 21.5368C54.0667 18.9598 52.5312 17.5348 48.7643 16.6168ZM64.8153 20.0698C64.8153 22.2448 63.4779 23.7643 61.5627 23.7643C59.6717 23.7643 58.2436 22.1773 58.2436 20.0698C58.2436 17.9638 59.6702 16.3768 61.5642 16.3768C63.4477 16.3768 64.8153 17.9293 64.8153 20.0698ZM62.2042 13.5598C60.6459 13.5598 59.3661 14.1763 58.3117 15.4378V14.0188C58.3121 13.9653 58.2911 13.9139 58.2535 13.8757C58.2158 13.8375 58.1644 13.8156 58.1105 13.8148H55.342C55.3152 13.815 55.2887 13.8204 55.264 13.8308C55.2393 13.8411 55.2168 13.8562 55.198 13.8752C55.1792 13.8941 55.1643 13.9165 55.1542 13.9412C55.1442 13.9658 55.1391 13.9922 55.1393 14.0188V29.7898C55.1393 29.9023 55.23 29.9938 55.342 29.9938H58.1105C58.1644 29.993 58.2158 29.9711 58.2535 29.9329C58.2911 29.8947 58.3121 29.8432 58.3117 29.7898V24.8113C59.3676 25.9978 60.6459 26.5768 62.2042 26.5768C65.1012 26.5768 68.0331 24.3418 68.0331 20.0698C68.0331 15.7963 65.1012 13.5598 62.2042 13.5598ZM75.5503 23.7868C73.5654 23.7868 72.0708 22.1893 72.0708 20.0698C72.0708 17.9428 73.514 16.3978 75.5049 16.3978C77.5018 16.3978 79.007 17.9968 79.007 20.1178C79.007 22.2433 77.5547 23.7868 75.5503 23.7868ZM75.5503 13.5613C71.8196 13.5613 68.8969 16.4413 68.8969 20.1163C68.8969 23.7523 71.8 26.6023 75.5049 26.6023C79.2476 26.6023 82.1794 23.7328 82.1794 20.0698C82.1794 16.4203 79.2688 13.5598 75.5503 13.5598V13.5613ZM90.146 13.8148H87.1006V10.6948C87.101 10.6681 87.0961 10.6417 87.0861 10.6169C87.0761 10.5922 87.0612 10.5697 87.0423 10.5507C87.0235 10.5317 87.001 10.5167 86.9762 10.5064C86.9514 10.4961 86.9248 10.4908 86.8979 10.4908H84.1295C84.0758 10.4916 84.0247 10.5133 83.987 10.5511C83.9493 10.589 83.9283 10.6401 83.9283 10.6933V13.8148H82.597C82.5702 13.815 82.5438 13.8204 82.5192 13.8308C82.4945 13.8412 82.4722 13.8563 82.4535 13.8752C82.4348 13.8942 82.4201 13.9167 82.4102 13.9413C82.4003 13.9659 82.3954 13.9923 82.3958 14.0188V16.4038C82.3958 16.5148 82.4865 16.6063 82.597 16.6063H83.9283V22.7758C83.9283 25.2688 85.1657 26.5333 87.6074 26.5333C88.5998 26.5333 89.4228 26.3278 90.2004 25.8853C90.2316 25.8676 90.2576 25.8421 90.2756 25.8112C90.2937 25.7804 90.3032 25.7454 90.3033 25.7098V23.4388C90.3032 23.4043 90.2943 23.3703 90.2773 23.3401C90.2604 23.31 90.236 23.2846 90.2065 23.2663C90.1772 23.2482 90.1438 23.2379 90.1093 23.2363C90.0749 23.2347 90.0406 23.242 90.0098 23.2573C89.4758 23.5273 88.9614 23.6503 88.385 23.6503C87.497 23.6503 87.0991 23.2453 87.0991 22.3408V16.6048H90.146C90.1728 16.6046 90.1993 16.5992 90.224 16.5888C90.2487 16.5784 90.2711 16.5634 90.2899 16.5444C90.3087 16.5255 90.3236 16.503 90.3337 16.4784C90.3438 16.4537 90.3489 16.4274 90.3487 16.4008V14.0158C90.3489 13.9893 90.3438 13.963 90.3337 13.9384C90.3236 13.9138 90.3087 13.8915 90.2898 13.8727C90.271 13.8539 90.2486 13.8389 90.2239 13.8287C90.1992 13.8185 90.1727 13.8133 90.146 13.8133V13.8148ZM100.758 13.8268V13.4443C100.758 12.3163 101.19 11.8123 102.158 11.8123C102.734 11.8123 103.199 11.9278 103.717 12.1018C103.748 12.1115 103.78 12.1138 103.812 12.1086C103.843 12.1034 103.873 12.0907 103.899 12.0718C103.925 12.0529 103.947 12.0281 103.961 11.9994C103.976 11.9707 103.984 11.939 103.984 11.9068V9.56978C103.984 9.52629 103.97 9.48383 103.944 9.44871C103.919 9.41359 103.882 9.38767 103.84 9.37478C103.095 9.14748 102.32 9.03615 101.541 9.04478C98.9838 9.04478 97.6314 10.4878 97.6314 13.2148V13.8028H96.3016C96.2477 13.8032 96.1962 13.8247 96.1582 13.8626C96.1202 13.9006 96.0989 13.9518 96.0989 14.0053V16.4023C96.0989 16.5148 96.1897 16.6063 96.3016 16.6063H97.6329V26.1223C97.6329 26.2348 97.7222 26.3248 97.8341 26.3248H100.603C100.713 26.3248 100.804 26.2348 100.804 26.1223V16.6048H103.389L107.348 26.1178C106.899 27.1183 106.456 27.3178 105.854 27.3178C105.365 27.3178 104.852 27.1708 104.326 26.8828C104.301 26.8697 104.275 26.8617 104.247 26.8591C104.219 26.8565 104.192 26.8595 104.165 26.8678C104.139 26.877 104.115 26.8915 104.094 26.9103C104.074 26.9291 104.057 26.9519 104.046 26.9773L103.108 29.0398C103.086 29.0862 103.083 29.1392 103.099 29.1879C103.115 29.2366 103.149 29.2775 103.194 29.3023C104.093 29.8138 105.115 30.0759 106.152 30.0613C108.194 30.0613 109.324 29.1073 110.321 26.5393L115.123 14.1028C115.135 14.0719 115.139 14.0386 115.135 14.0057C115.132 13.9728 115.12 13.9413 115.101 13.9138C115.083 13.8867 115.058 13.8644 115.029 13.849C115 13.8335 114.968 13.8254 114.935 13.8253H112.053C112.011 13.8255 111.97 13.8387 111.935 13.8632C111.901 13.8876 111.875 13.9221 111.861 13.9618L108.909 22.4128L105.677 13.9558C105.662 13.9174 105.637 13.8844 105.603 13.861C105.569 13.8377 105.529 13.8252 105.487 13.8253H100.758V13.8268ZM94.6057 13.8148H91.8373C91.7834 13.8156 91.732 13.8375 91.6943 13.8757C91.6566 13.9139 91.6357 13.9653 91.6361 14.0188V26.1223C91.6361 26.2348 91.7269 26.3248 91.8388 26.3248H94.6073C94.7177 26.3248 94.8085 26.2348 94.8085 26.1223V14.0173C94.8085 13.9638 94.7872 13.9126 94.7492 13.8746C94.7112 13.8367 94.6596 13.8152 94.6057 13.8148ZM93.2351 8.30378C92.706 8.30696 92.1998 8.5182 91.8277 8.89112C91.4556 9.26405 91.2479 9.76817 91.2503 10.2928C91.2489 10.5528 91.2992 10.8105 91.3983 11.0513C91.4973 11.2921 91.6432 11.5111 91.8277 11.6959C92.0122 11.8808 92.2315 12.0278 92.4733 12.1286C92.715 12.2293 92.9744 12.2819 93.2366 12.2833C93.766 12.2801 94.2724 12.0687 94.6446 11.6954C95.0168 11.3222 95.2243 10.8177 95.2215 10.2928C95.2215 9.19328 94.3319 8.30378 93.2366 8.30378H93.2351ZM117.599 15.0193H117.092V15.6673H117.599C117.852 15.6673 118.003 15.5428 118.003 15.3433C118.003 15.1318 117.852 15.0193 117.599 15.0193ZM117.927 15.9433L118.48 16.7173H118.014L117.519 16.0078H117.092V16.7173H116.704V14.6668H117.614C118.089 14.6668 118.402 14.9113 118.402 15.3208C118.409 15.4632 118.365 15.6034 118.278 15.7171C118.192 15.8308 118.067 15.9109 117.927 15.9433ZM117.496 13.9858C116.498 13.9858 115.743 14.7808 115.743 15.7543C115.743 16.7263 116.493 17.5108 117.486 17.5108C118.484 17.5108 119.241 16.7158 119.241 15.7423C119.241 14.7703 118.489 13.9858 117.496 13.9858ZM117.486 17.7058C117.228 17.7052 116.974 17.6542 116.736 17.5556C116.499 17.4571 116.284 17.313 116.103 17.1316C115.922 16.9502 115.779 16.7352 115.682 16.4988C115.585 16.2624 115.536 16.0094 115.539 15.7543C115.539 14.6833 116.401 13.7908 117.496 13.7908C117.754 13.7914 118.008 13.8424 118.246 13.9409C118.483 14.0395 118.698 14.1836 118.879 14.3649C119.06 14.5463 119.203 14.7614 119.3 14.9978C119.397 15.2341 119.445 15.4872 119.443 15.7423C119.443 16.8133 118.581 17.7073 117.486 17.7073V17.7058Z" fill="black"/>
<rect width="118" height="36" transform="translate(245)" fill="black" fill-opacity="0.01"/>
<path d="M273.548 15.9598C267.777 12.5248 258.258 12.2083 252.749 13.8838C252.538 13.9471 252.316 13.9684 252.097 13.9465C251.877 13.9246 251.664 13.8598 251.47 13.7559C251.276 13.652 251.105 13.5111 250.966 13.3413C250.827 13.1714 250.723 12.976 250.661 12.7663C250.531 12.342 250.575 11.8839 250.784 11.4917C250.992 11.0995 251.349 10.805 251.776 10.6723C258.099 8.74778 268.614 9.11978 275.258 13.0723C276.054 13.5463 276.315 14.5753 275.843 15.3718C275.733 15.561 275.585 15.7265 275.41 15.8587C275.234 15.9909 275.034 16.0872 274.82 16.1419C274.606 16.1966 274.384 16.2087 274.166 16.1774C273.947 16.1461 273.738 16.0722 273.548 15.9598ZM273.359 21.0478C273.265 21.2039 273.14 21.3399 272.992 21.4478C272.843 21.5556 272.675 21.6332 272.497 21.6761C272.318 21.7189 272.133 21.7261 271.951 21.6973C271.77 21.6685 271.596 21.6043 271.44 21.5083C266.629 18.5428 259.292 17.6848 253.599 19.4173C253.423 19.47 253.238 19.4877 253.055 19.4693C252.872 19.4509 252.694 19.3968 252.532 19.3101C252.371 19.2233 252.228 19.1057 252.112 18.964C251.996 18.8223 251.91 18.6593 251.858 18.4843C251.75 18.1306 251.787 17.7492 251.962 17.4226C252.136 17.0961 252.433 16.8507 252.788 16.7398C259.29 14.7613 267.375 15.7198 272.901 19.1248C273.556 19.5298 273.763 20.3908 273.359 21.0478ZM271.169 25.9333C271.094 26.0585 270.994 26.1676 270.876 26.2543C270.758 26.341 270.623 26.4034 270.48 26.4381C270.338 26.4727 270.189 26.4788 270.044 26.456C269.899 26.4332 269.76 26.382 269.635 26.3053C265.429 23.7298 260.139 23.1478 253.906 24.5758C253.762 24.6081 253.614 24.6119 253.469 24.587C253.324 24.5621 253.186 24.509 253.061 24.4308C252.937 24.3526 252.83 24.2508 252.746 24.1312C252.661 24.0117 252.602 23.8768 252.57 23.7343C252.503 23.4463 252.554 23.1437 252.711 22.8926C252.868 22.6416 253.12 22.4626 253.41 22.3948C260.23 20.8318 266.08 21.5053 270.8 24.3958C271.053 24.5525 271.233 24.8017 271.302 25.0894C271.371 25.3772 271.323 25.6804 271.169 25.9333ZM262.959 0.0507812C253.069 0.0507812 245.054 8.08478 245.054 17.9953C245.054 27.9073 253.069 35.9398 262.959 35.9398C272.846 35.9398 280.863 27.9073 280.863 17.9953C280.863 8.08478 272.846 0.0507812 262.957 0.0507812H262.959ZM293.764 16.6168C290.674 15.8773 290.123 15.3598 290.123 14.2693C290.123 13.2403 291.091 12.5473 292.528 12.5473C293.922 12.5473 295.304 13.0738 296.754 14.1568C296.797 14.1898 296.852 14.2018 296.906 14.1943C296.933 14.1902 296.959 14.1807 296.981 14.1665C297.004 14.1524 297.024 14.1337 297.04 14.1118L298.549 11.9788C298.579 11.9365 298.592 11.8846 298.585 11.8335C298.578 11.7823 298.552 11.7357 298.511 11.7028C296.787 10.3153 294.844 9.64178 292.574 9.64178C289.236 9.64178 286.905 11.6488 286.905 14.5213C286.905 17.6023 288.917 18.6913 292.392 19.5343C295.35 20.2168 295.849 20.7898 295.849 21.8128C295.849 22.9453 294.84 23.6503 293.215 23.6503C291.41 23.6503 289.938 23.0413 288.292 21.6118C288.272 21.594 288.249 21.5805 288.223 21.5719C288.198 21.5634 288.171 21.5601 288.144 21.5622C288.117 21.5643 288.091 21.5718 288.067 21.5842C288.043 21.5966 288.022 21.6136 288.005 21.6343L286.312 23.6533C286.278 23.6936 286.26 23.7456 286.264 23.7982C286.268 23.8509 286.292 23.9001 286.332 23.9353C288.249 25.6498 290.604 26.5543 293.146 26.5543C296.743 26.5543 299.067 24.5848 299.067 21.5368C299.067 18.9598 297.531 17.5348 293.764 16.6168ZM309.815 20.0698C309.815 22.2448 308.478 23.7643 306.563 23.7643C304.672 23.7643 303.244 22.1773 303.244 20.0698C303.244 17.9638 304.67 16.3768 306.564 16.3768C308.448 16.3768 309.815 17.9293 309.815 20.0698ZM307.204 13.5598C305.646 13.5598 304.366 14.1763 303.312 15.4378V14.0188C303.312 13.9653 303.291 13.9139 303.253 13.8757C303.216 13.8375 303.164 13.8156 303.11 13.8148H300.342C300.315 13.815 300.289 13.8204 300.264 13.8308C300.239 13.8411 300.217 13.8562 300.198 13.8752C300.179 13.8941 300.164 13.9165 300.154 13.9412C300.144 13.9658 300.139 13.9922 300.139 14.0188V29.7898C300.139 29.9023 300.23 29.9938 300.342 29.9938H303.11C303.164 29.993 303.216 29.9711 303.253 29.9329C303.291 29.8947 303.312 29.8432 303.312 29.7898V24.8113C304.368 25.9978 305.646 26.5768 307.204 26.5768C310.101 26.5768 313.033 24.3418 313.033 20.0698C313.033 15.7963 310.101 13.5598 307.204 13.5598ZM320.55 23.7868C318.565 23.7868 317.071 22.1893 317.071 20.0698C317.071 17.9428 318.514 16.3978 320.505 16.3978C322.502 16.3978 324.007 17.9968 324.007 20.1178C324.007 22.2433 322.555 23.7868 320.55 23.7868ZM320.55 13.5613C316.82 13.5613 313.897 16.4413 313.897 20.1163C313.897 23.7523 316.8 26.6023 320.505 26.6023C324.248 26.6023 327.179 23.7328 327.179 20.0698C327.179 16.4203 324.269 13.5598 320.55 13.5598V13.5613ZM335.146 13.8148H332.101V10.6948C332.101 10.6681 332.096 10.6417 332.086 10.6169C332.076 10.5922 332.061 10.5697 332.042 10.5507C332.023 10.5317 332.001 10.5167 331.976 10.5064C331.951 10.4961 331.925 10.4908 331.898 10.4908H329.129C329.076 10.4916 329.025 10.5133 328.987 10.5511C328.949 10.589 328.928 10.6401 328.928 10.6933V13.8148H327.597C327.57 13.815 327.544 13.8204 327.519 13.8308C327.495 13.8412 327.472 13.8563 327.454 13.8752C327.435 13.8942 327.42 13.9167 327.41 13.9413C327.4 13.9659 327.395 13.9923 327.396 14.0188V16.4038C327.396 16.5148 327.487 16.6063 327.597 16.6063H328.928V22.7758C328.928 25.2688 330.166 26.5333 332.607 26.5333C333.6 26.5333 334.423 26.3278 335.2 25.8853C335.232 25.8676 335.258 25.8421 335.276 25.8112C335.294 25.7804 335.303 25.7454 335.303 25.7098V23.4388C335.303 23.4043 335.294 23.3703 335.277 23.3401C335.26 23.31 335.236 23.2846 335.206 23.2663C335.177 23.2482 335.144 23.2379 335.109 23.2363C335.075 23.2347 335.041 23.242 335.01 23.2573C334.476 23.5273 333.961 23.6503 333.385 23.6503C332.497 23.6503 332.099 23.2453 332.099 22.3408V16.6048H335.146C335.173 16.6046 335.199 16.5992 335.224 16.5888C335.249 16.5784 335.271 16.5634 335.29 16.5444C335.309 16.5255 335.324 16.503 335.334 16.4784C335.344 16.4537 335.349 16.4274 335.349 16.4008V14.0158C335.349 13.9893 335.344 13.963 335.334 13.9384C335.324 13.9138 335.309 13.8915 335.29 13.8727C335.271 13.8539 335.249 13.8389 335.224 13.8287C335.199 13.8185 335.173 13.8133 335.146 13.8133V13.8148ZM345.758 13.8268V13.4443C345.758 12.3163 346.19 11.8123 347.158 11.8123C347.734 11.8123 348.199 11.9278 348.717 12.1018C348.748 12.1115 348.78 12.1138 348.812 12.1086C348.843 12.1034 348.873 12.0907 348.899 12.0718C348.925 12.0529 348.947 12.0281 348.961 11.9994C348.976 11.9707 348.984 11.939 348.984 11.9068V9.56978C348.984 9.52629 348.97 9.48383 348.944 9.44871C348.919 9.41359 348.882 9.38767 348.84 9.37478C348.095 9.14748 347.32 9.03615 346.541 9.04478C343.984 9.04478 342.631 10.4878 342.631 13.2148V13.8028H341.302C341.248 13.8032 341.196 13.8247 341.158 13.8626C341.12 13.9006 341.099 13.9518 341.099 14.0053V16.4023C341.099 16.5148 341.19 16.6063 341.302 16.6063H342.633V26.1223C342.633 26.2348 342.722 26.3248 342.834 26.3248H345.603C345.713 26.3248 345.804 26.2348 345.804 26.1223V16.6048H348.389L352.348 26.1178C351.899 27.1183 351.456 27.3178 350.854 27.3178C350.365 27.3178 349.852 27.1708 349.326 26.8828C349.301 26.8697 349.275 26.8617 349.247 26.8591C349.219 26.8565 349.192 26.8595 349.165 26.8678C349.139 26.877 349.115 26.8915 349.094 26.9103C349.074 26.9291 349.057 26.9519 349.046 26.9773L348.108 29.0398C348.086 29.0862 348.083 29.1392 348.099 29.1879C348.115 29.2366 348.149 29.2775 348.194 29.3023C349.093 29.8138 350.115 30.0759 351.152 30.0613C353.194 30.0613 354.324 29.1073 355.321 26.5393L360.123 14.1028C360.135 14.0719 360.139 14.0386 360.135 14.0057C360.132 13.9728 360.12 13.9413 360.101 13.9138C360.083 13.8867 360.058 13.8644 360.029 13.849C360 13.8335 359.968 13.8254 359.935 13.8253H357.053C357.011 13.8255 356.97 13.8387 356.935 13.8632C356.901 13.8876 356.875 13.9221 356.861 13.9618L353.909 22.4128L350.677 13.9558C350.662 13.9174 350.637 13.8844 350.603 13.861C350.569 13.8377 350.529 13.8252 350.487 13.8253H345.758V13.8268ZM339.606 13.8148H336.837C336.783 13.8156 336.732 13.8375 336.694 13.8757C336.657 13.9139 336.636 13.9653 336.636 14.0188V26.1223C336.636 26.2348 336.727 26.3248 336.839 26.3248H339.607C339.718 26.3248 339.808 26.2348 339.808 26.1223V14.0173C339.808 13.9638 339.787 13.9126 339.749 13.8746C339.711 13.8367 339.66 13.8152 339.606 13.8148ZM338.235 8.30378C337.706 8.30696 337.2 8.5182 336.828 8.89112C336.456 9.26405 336.248 9.76817 336.25 10.2928C336.249 10.5528 336.299 10.8105 336.398 11.0513C336.497 11.2921 336.643 11.5111 336.828 11.6959C337.012 11.8808 337.232 12.0278 337.473 12.1286C337.715 12.2293 337.974 12.2819 338.237 12.2833C338.766 12.2801 339.272 12.0687 339.645 11.6954C340.017 11.3222 340.224 10.8177 340.221 10.2928C340.221 9.19328 339.332 8.30378 338.237 8.30378H338.235ZM362.599 15.0193H362.092V15.6673H362.599C362.852 15.6673 363.003 15.5428 363.003 15.3433C363.003 15.1318 362.852 15.0193 362.599 15.0193ZM362.927 15.9433L363.48 16.7173H363.014L362.519 16.0078H362.092V16.7173H361.704V14.6668H362.614C363.089 14.6668 363.402 14.9113 363.402 15.3208C363.409 15.4632 363.365 15.6034 363.278 15.7171C363.192 15.8308 363.067 15.9109 362.927 15.9433ZM362.496 13.9858C361.498 13.9858 360.743 14.7808 360.743 15.7543C360.743 16.7263 361.493 17.5108 362.486 17.5108C363.484 17.5108 364.241 16.7158 364.241 15.7423C364.241 14.7703 363.489 13.9858 362.496 13.9858ZM362.486 17.7058C362.228 17.7052 361.974 17.6542 361.736 17.5556C361.499 17.4571 361.284 17.313 361.103 17.1316C360.922 16.9502 360.779 16.7352 360.682 16.4988C360.585 16.2624 360.536 16.0094 360.539 15.7543C360.539 14.6833 361.401 13.7908 362.496 13.7908C362.754 13.7914 363.008 13.8424 363.246 13.9409C363.483 14.0395 363.698 14.1836 363.879 14.3649C364.06 14.5463 364.203 14.7614 364.3 14.9978C364.397 15.2341 364.445 15.4872 364.443 15.7423C364.443 16.8133 363.581 17.7073 362.486 17.7073V17.7058Z" fill="black"/>
<rect width="118" height="36" transform="translate(490)" fill="black" fill-opacity="0.01"/>
<path d="M518.548 15.9598C512.777 12.5248 503.258 12.2083 497.749 13.8838C497.538 13.9471 497.316 13.9684 497.097 13.9465C496.877 13.9246 496.664 13.8598 496.47 13.7559C496.276 13.652 496.105 13.5111 495.966 13.3413C495.827 13.1714 495.723 12.976 495.661 12.7663C495.531 12.342 495.575 11.8839 495.784 11.4917C495.992 11.0995 496.349 10.805 496.776 10.6723C503.099 8.74778 513.614 9.11978 520.258 13.0723C521.054 13.5463 521.315 14.5753 520.843 15.3718C520.733 15.561 520.585 15.7265 520.41 15.8587C520.234 15.9909 520.034 16.0872 519.82 16.1419C519.606 16.1966 519.384 16.2087 519.166 16.1774C518.947 16.1461 518.738 16.0722 518.548 15.9598ZM518.359 21.0478C518.265 21.2039 518.14 21.3399 517.992 21.4478C517.843 21.5556 517.675 21.6332 517.497 21.6761C517.318 21.7189 517.133 21.7261 516.951 21.6973C516.77 21.6685 516.596 21.6043 516.44 21.5083C511.629 18.5428 504.292 17.6848 498.599 19.4173C498.423 19.47 498.238 19.4877 498.055 19.4693C497.872 19.4509 497.694 19.3968 497.532 19.3101C497.371 19.2233 497.228 19.1057 497.112 18.964C496.996 18.8223 496.91 18.6593 496.858 18.4843C496.75 18.1306 496.787 17.7492 496.962 17.4226C497.136 17.0961 497.433 16.8507 497.788 16.7398C504.29 14.7613 512.375 15.7198 517.901 19.1248C518.556 19.5298 518.763 20.3908 518.359 21.0478ZM516.169 25.9333C516.094 26.0585 515.994 26.1676 515.876 26.2543C515.758 26.341 515.623 26.4034 515.48 26.4381C515.338 26.4727 515.189 26.4788 515.044 26.456C514.899 26.4332 514.76 26.382 514.635 26.3053C510.429 23.7298 505.139 23.1478 498.906 24.5758C498.762 24.6081 498.614 24.6119 498.469 24.587C498.324 24.5621 498.186 24.509 498.061 24.4308C497.937 24.3526 497.83 24.2508 497.746 24.1312C497.661 24.0117 497.602 23.8768 497.57 23.7343C497.503 23.4463 497.554 23.1437 497.711 22.8926C497.868 22.6416 498.12 22.4626 498.41 22.3948C505.23 20.8318 511.08 21.5053 515.8 24.3958C516.053 24.5525 516.233 24.8017 516.302 25.0894C516.371 25.3772 516.323 25.6804 516.169 25.9333ZM507.959 0.0507812C498.069 0.0507812 490.054 8.08478 490.054 17.9953C490.054 27.9073 498.069 35.9398 507.959 35.9398C517.846 35.9398 525.863 27.9073 525.863 17.9953C525.863 8.08478 517.846 0.0507812 507.957 0.0507812H507.959ZM538.764 16.6168C535.674 15.8773 535.123 15.3598 535.123 14.2693C535.123 13.2403 536.091 12.5473 537.528 12.5473C538.922 12.5473 540.304 13.0738 541.754 14.1568C541.797 14.1898 541.852 14.2018 541.906 14.1943C541.933 14.1902 541.959 14.1807 541.981 14.1665C542.004 14.1524 542.024 14.1337 542.04 14.1118L543.549 11.9788C543.579 11.9365 543.592 11.8846 543.585 11.8335C543.578 11.7823 543.552 11.7357 543.511 11.7028C541.787 10.3153 539.844 9.64178 537.574 9.64178C534.236 9.64178 531.905 11.6488 531.905 14.5213C531.905 17.6023 533.917 18.6913 537.392 19.5343C540.35 20.2168 540.849 20.7898 540.849 21.8128C540.849 22.9453 539.84 23.6503 538.215 23.6503C536.41 23.6503 534.938 23.0413 533.292 21.6118C533.272 21.594 533.249 21.5805 533.223 21.5719C533.198 21.5634 533.171 21.5601 533.144 21.5622C533.117 21.5643 533.091 21.5718 533.067 21.5842C533.043 21.5966 533.022 21.6136 533.005 21.6343L531.312 23.6533C531.278 23.6936 531.26 23.7456 531.264 23.7982C531.268 23.8509 531.292 23.9001 531.332 23.9353C533.249 25.6498 535.604 26.5543 538.146 26.5543C541.743 26.5543 544.067 24.5848 544.067 21.5368C544.067 18.9598 542.531 17.5348 538.764 16.6168ZM554.815 20.0698C554.815 22.2448 553.478 23.7643 551.563 23.7643C549.672 23.7643 548.244 22.1773 548.244 20.0698C548.244 17.9638 549.67 16.3768 551.564 16.3768C553.448 16.3768 554.815 17.9293 554.815 20.0698ZM552.204 13.5598C550.646 13.5598 549.366 14.1763 548.312 15.4378V14.0188C548.312 13.9653 548.291 13.9139 548.253 13.8757C548.216 13.8375 548.164 13.8156 548.11 13.8148H545.342C545.315 13.815 545.289 13.8204 545.264 13.8308C545.239 13.8411 545.217 13.8562 545.198 13.8752C545.179 13.8941 545.164 13.9165 545.154 13.9412C545.144 13.9658 545.139 13.9922 545.139 14.0188V29.7898C545.139 29.9023 545.23 29.9938 545.342 29.9938H548.11C548.164 29.993 548.216 29.9711 548.253 29.9329C548.291 29.8947 548.312 29.8432 548.312 29.7898V24.8113C549.368 25.9978 550.646 26.5768 552.204 26.5768C555.101 26.5768 558.033 24.3418 558.033 20.0698C558.033 15.7963 555.101 13.5598 552.204 13.5598ZM565.55 23.7868C563.565 23.7868 562.071 22.1893 562.071 20.0698C562.071 17.9428 563.514 16.3978 565.505 16.3978C567.502 16.3978 569.007 17.9968 569.007 20.1178C569.007 22.2433 567.555 23.7868 565.55 23.7868ZM565.55 13.5613C561.82 13.5613 558.897 16.4413 558.897 20.1163C558.897 23.7523 561.8 26.6023 565.505 26.6023C569.248 26.6023 572.179 23.7328 572.179 20.0698C572.179 16.4203 569.269 13.5598 565.55 13.5598V13.5613ZM580.146 13.8148H577.101V10.6948C577.101 10.6681 577.096 10.6417 577.086 10.6169C577.076 10.5922 577.061 10.5697 577.042 10.5507C577.023 10.5317 577.001 10.5167 576.976 10.5064C576.951 10.4961 576.925 10.4908 576.898 10.4908H574.129C574.076 10.4916 574.025 10.5133 573.987 10.5511C573.949 10.589 573.928 10.6401 573.928 10.6933V13.8148H572.597C572.57 13.815 572.544 13.8204 572.519 13.8308C572.495 13.8412 572.472 13.8563 572.454 13.8752C572.435 13.8942 572.42 13.9167 572.41 13.9413C572.4 13.9659 572.395 13.9923 572.396 14.0188V16.4038C572.396 16.5148 572.487 16.6063 572.597 16.6063H573.928V22.7758C573.928 25.2688 575.166 26.5333 577.607 26.5333C578.6 26.5333 579.423 26.3278 580.2 25.8853C580.232 25.8676 580.258 25.8421 580.276 25.8112C580.294 25.7804 580.303 25.7454 580.303 25.7098V23.4388C580.303 23.4043 580.294 23.3703 580.277 23.3401C580.26 23.31 580.236 23.2846 580.206 23.2663C580.177 23.2482 580.144 23.2379 580.109 23.2363C580.075 23.2347 580.041 23.242 580.01 23.2573C579.476 23.5273 578.961 23.6503 578.385 23.6503C577.497 23.6503 577.099 23.2453 577.099 22.3408V16.6048H580.146C580.173 16.6046 580.199 16.5992 580.224 16.5888C580.249 16.5784 580.271 16.5634 580.29 16.5444C580.309 16.5255 580.324 16.503 580.334 16.4784C580.344 16.4537 580.349 16.4274 580.349 16.4008V14.0158C580.349 13.9893 580.344 13.963 580.334 13.9384C580.324 13.9138 580.309 13.8915 580.29 13.8727C580.271 13.8539 580.249 13.8389 580.224 13.8287C580.199 13.8185 580.173 13.8133 580.146 13.8133V13.8148ZM590.758 13.8268V13.4443C590.758 12.3163 591.19 11.8123 592.158 11.8123C592.734 11.8123 593.199 11.9278 593.717 12.1018C593.748 12.1115 593.78 12.1138 593.812 12.1086C593.843 12.1034 593.873 12.0907 593.899 12.0718C593.925 12.0529 593.947 12.0281 593.961 11.9994C593.976 11.9707 593.984 11.939 593.984 11.9068V9.56978C593.984 9.52629 593.97 9.48383 593.944 9.44871C593.919 9.41359 593.882 9.38767 593.84 9.37478C593.095 9.14748 592.32 9.03615 591.541 9.04478C588.984 9.04478 587.631 10.4878 587.631 13.2148V13.8028H586.302C586.248 13.8032 586.196 13.8247 586.158 13.8626C586.12 13.9006 586.099 13.9518 586.099 14.0053V16.4023C586.099 16.5148 586.19 16.6063 586.302 16.6063H587.633V26.1223C587.633 26.2348 587.722 26.3248 587.834 26.3248H590.603C590.713 26.3248 590.804 26.2348 590.804 26.1223V16.6048H593.389L597.348 26.1178C596.899 27.1183 596.456 27.3178 595.854 27.3178C595.365 27.3178 594.852 27.1708 594.326 26.8828C594.301 26.8697 594.275 26.8617 594.247 26.8591C594.219 26.8565 594.192 26.8595 594.165 26.8678C594.139 26.877 594.115 26.8915 594.094 26.9103C594.074 26.9291 594.057 26.9519 594.046 26.9773L593.108 29.0398C593.086 29.0862 593.083 29.1392 593.099 29.1879C593.115 29.2366 593.149 29.2775 593.194 29.3023C594.093 29.8138 595.115 30.0759 596.152 30.0613C598.194 30.0613 599.324 29.1073 600.321 26.5393L605.123 14.1028C605.135 14.0719 605.139 14.0386 605.135 14.0057C605.132 13.9728 605.12 13.9413 605.101 13.9138C605.083 13.8867 605.058 13.8644 605.029 13.849C605 13.8335 604.968 13.8254 604.935 13.8253H602.053C602.011 13.8255 601.97 13.8387 601.935 13.8632C601.901 13.8876 601.875 13.9221 601.861 13.9618L598.909 22.4128L595.677 13.9558C595.662 13.9174 595.637 13.8844 595.603 13.861C595.569 13.8377 595.529 13.8252 595.487 13.8253H590.758V13.8268ZM584.606 13.8148H581.837C581.783 13.8156 581.732 13.8375 581.694 13.8757C581.657 13.9139 581.636 13.9653 581.636 14.0188V26.1223C581.636 26.2348 581.727 26.3248 581.839 26.3248H584.607C584.718 26.3248 584.808 26.2348 584.808 26.1223V14.0173C584.808 13.9638 584.787 13.9126 584.749 13.8746C584.711 13.8367 584.66 13.8152 584.606 13.8148ZM583.235 8.30378C582.706 8.30696 582.2 8.5182 581.828 8.89112C581.456 9.26405 581.248 9.76817 581.25 10.2928C581.249 10.5528 581.299 10.8105 581.398 11.0513C581.497 11.2921 581.643 11.5111 581.828 11.6959C582.012 11.8808 582.232 12.0278 582.473 12.1286C582.715 12.2293 582.974 12.2819 583.237 12.2833C583.766 12.2801 584.272 12.0687 584.645 11.6954C585.017 11.3222 585.224 10.8177 585.221 10.2928C585.221 9.19328 584.332 8.30378 583.237 8.30378H583.235ZM607.599 15.0193H607.092V15.6673H607.599C607.852 15.6673 608.003 15.5428 608.003 15.3433C608.003 15.1318 607.852 15.0193 607.599 15.0193ZM607.927 15.9433L608.48 16.7173H608.014L607.519 16.0078H607.092V16.7173H606.704V14.6668H607.614C608.089 14.6668 608.402 14.9113 608.402 15.3208C608.409 15.4632 608.365 15.6034 608.278 15.7171C608.192 15.8308 608.067 15.9109 607.927 15.9433ZM607.496 13.9858C606.498 13.9858 605.743 14.7808 605.743 15.7543C605.743 16.7263 606.493 17.5108 607.486 17.5108C608.484 17.5108 609.241 16.7158 609.241 15.7423C609.241 14.7703 608.489 13.9858 607.496 13.9858ZM607.486 17.7058C607.228 17.7052 606.974 17.6542 606.736 17.5556C606.499 17.4571 606.284 17.313 606.103 17.1316C605.922 16.9502 605.779 16.7352 605.682 16.4988C605.585 16.2624 605.536 16.0094 605.539 15.7543C605.539 14.6833 606.401 13.7908 607.496 13.7908C607.754 13.7914 608.008 13.8424 608.246 13.9409C608.483 14.0395 608.698 14.1836 608.879 14.3649C609.06 14.5463 609.203 14.7614 609.3 14.9978C609.397 15.2341 609.445 15.4872 609.443 15.7423C609.443 16.8133 608.581 17.7073 607.486 17.7073V17.7058Z" fill="black"/>
<rect x="735" y="47" width="215" height="224" fill="#F0F0F0"/>
<rect opacity="0.5" x="737" y="292" width="176" height="25" rx="12.5" fill="#F0F0F0"/>
<rect opacity="0.5" x="737" y="323" width="133" height="25" rx="12.5" fill="#F0F0F0"/>
<rect width="118" height="36" transform="translate(735)" fill="black" fill-opacity="0.01"/>
<path d="M763.548 15.9598C757.777 12.5248 748.258 12.2083 742.749 13.8838C742.538 13.9471 742.316 13.9684 742.097 13.9465C741.877 13.9246 741.664 13.8598 741.47 13.7559C741.276 13.652 741.105 13.5111 740.966 13.3413C740.827 13.1714 740.723 12.976 740.661 12.7663C740.531 12.342 740.575 11.8839 740.784 11.4917C740.992 11.0995 741.349 10.805 741.776 10.6723C748.099 8.74778 758.614 9.11978 765.258 13.0723C766.054 13.5463 766.315 14.5753 765.843 15.3718C765.733 15.561 765.585 15.7265 765.41 15.8587C765.234 15.9909 765.034 16.0872 764.82 16.1419C764.606 16.1966 764.384 16.2087 764.166 16.1774C763.947 16.1461 763.738 16.0722 763.548 15.9598ZM763.359 21.0478C763.265 21.2039 763.14 21.3399 762.992 21.4478C762.843 21.5556 762.675 21.6332 762.497 21.6761C762.318 21.7189 762.133 21.7261 761.951 21.6973C761.77 21.6685 761.596 21.6043 761.44 21.5083C756.629 18.5428 749.292 17.6848 743.599 19.4173C743.423 19.47 743.238 19.4877 743.055 19.4693C742.872 19.4509 742.694 19.3968 742.532 19.3101C742.371 19.2233 742.228 19.1057 742.112 18.964C741.996 18.8223 741.91 18.6593 741.858 18.4843C741.75 18.1306 741.787 17.7492 741.962 17.4226C742.136 17.0961 742.433 16.8507 742.788 16.7398C749.29 14.7613 757.375 15.7198 762.901 19.1248C763.556 19.5298 763.763 20.3908 763.359 21.0478ZM761.169 25.9333C761.094 26.0585 760.994 26.1676 760.876 26.2543C760.758 26.341 760.623 26.4034 760.48 26.4381C760.338 26.4727 760.189 26.4788 760.044 26.456C759.899 26.4332 759.76 26.382 759.635 26.3053C755.429 23.7298 750.139 23.1478 743.906 24.5758C743.762 24.6081 743.614 24.6119 743.469 24.587C743.324 24.5621 743.186 24.509 743.061 24.4308C742.937 24.3526 742.83 24.2508 742.746 24.1312C742.661 24.0117 742.602 23.8768 742.57 23.7343C742.503 23.4463 742.554 23.1437 742.711 22.8926C742.868 22.6416 743.12 22.4626 743.41 22.3948C750.23 20.8318 756.08 21.5053 760.8 24.3958C761.053 24.5525 761.233 24.8017 761.302 25.0894C761.371 25.3772 761.323 25.6804 761.169 25.9333ZM752.959 0.0507812C743.069 0.0507812 735.054 8.08478 735.054 17.9953C735.054 27.9073 743.069 35.9398 752.959 35.9398C762.846 35.9398 770.863 27.9073 770.863 17.9953C770.863 8.08478 762.846 0.0507812 752.957 0.0507812H752.959ZM783.764 16.6168C780.674 15.8773 780.123 15.3598 780.123 14.2693C780.123 13.2403 781.091 12.5473 782.528 12.5473C783.922 12.5473 785.304 13.0738 786.754 14.1568C786.797 14.1898 786.852 14.2018 786.906 14.1943C786.933 14.1902 786.959 14.1807 786.981 14.1665C787.004 14.1524 787.024 14.1337 787.04 14.1118L788.549 11.9788C788.579 11.9365 788.592 11.8846 788.585 11.8335C788.578 11.7823 788.552 11.7357 788.511 11.7028C786.787 10.3153 784.844 9.64178 782.574 9.64178C779.236 9.64178 776.905 11.6488 776.905 14.5213C776.905 17.6023 778.917 18.6913 782.392 19.5343C785.35 20.2168 785.849 20.7898 785.849 21.8128C785.849 22.9453 784.84 23.6503 783.215 23.6503C781.41 23.6503 779.938 23.0413 778.292 21.6118C778.272 21.594 778.249 21.5805 778.223 21.5719C778.198 21.5634 778.171 21.5601 778.144 21.5622C778.117 21.5643 778.091 21.5718 778.067 21.5842C778.043 21.5966 778.022 21.6136 778.005 21.6343L776.312 23.6533C776.278 23.6936 776.26 23.7456 776.264 23.7982C776.268 23.8509 776.292 23.9001 776.332 23.9353C778.249 25.6498 780.604 26.5543 783.146 26.5543C786.743 26.5543 789.067 24.5848 789.067 21.5368C789.067 18.9598 787.531 17.5348 783.764 16.6168ZM799.815 20.0698C799.815 22.2448 798.478 23.7643 796.563 23.7643C794.672 23.7643 793.244 22.1773 793.244 20.0698C793.244 17.9638 794.67 16.3768 796.564 16.3768C798.448 16.3768 799.815 17.9293 799.815 20.0698ZM797.204 13.5598C795.646 13.5598 794.366 14.1763 793.312 15.4378V14.0188C793.312 13.9653 793.291 13.9139 793.253 13.8757C793.216 13.8375 793.164 13.8156 793.11 13.8148H790.342C790.315 13.815 790.289 13.8204 790.264 13.8308C790.239 13.8411 790.217 13.8562 790.198 13.8752C790.179 13.8941 790.164 13.9165 790.154 13.9412C790.144 13.9658 790.139 13.9922 790.139 14.0188V29.7898C790.139 29.9023 790.23 29.9938 790.342 29.9938H793.11C793.164 29.993 793.216 29.9711 793.253 29.9329C793.291 29.8947 793.312 29.8432 793.312 29.7898V24.8113C794.368 25.9978 795.646 26.5768 797.204 26.5768C800.101 26.5768 803.033 24.3418 803.033 20.0698C803.033 15.7963 800.101 13.5598 797.204 13.5598ZM810.55 23.7868C808.565 23.7868 807.071 22.1893 807.071 20.0698C807.071 17.9428 808.514 16.3978 810.505 16.3978C812.502 16.3978 814.007 17.9968 814.007 20.1178C814.007 22.2433 812.555 23.7868 810.55 23.7868ZM810.55 13.5613C806.82 13.5613 803.897 16.4413 803.897 20.1163C803.897 23.7523 806.8 26.6023 810.505 26.6023C814.248 26.6023 817.179 23.7328 817.179 20.0698C817.179 16.4203 814.269 13.5598 810.55 13.5598V13.5613ZM825.146 13.8148H822.101V10.6948C822.101 10.6681 822.096 10.6417 822.086 10.6169C822.076 10.5922 822.061 10.5697 822.042 10.5507C822.023 10.5317 822.001 10.5167 821.976 10.5064C821.951 10.4961 821.925 10.4908 821.898 10.4908H819.129C819.076 10.4916 819.025 10.5133 818.987 10.5511C818.949 10.589 818.928 10.6401 818.928 10.6933V13.8148H817.597C817.57 13.815 817.544 13.8204 817.519 13.8308C817.495 13.8412 817.472 13.8563 817.454 13.8752C817.435 13.8942 817.42 13.9167 817.41 13.9413C817.4 13.9659 817.395 13.9923 817.396 14.0188V16.4038C817.396 16.5148 817.487 16.6063 817.597 16.6063H818.928V22.7758C818.928 25.2688 820.166 26.5333 822.607 26.5333C823.6 26.5333 824.423 26.3278 825.2 25.8853C825.232 25.8676 825.258 25.8421 825.276 25.8112C825.294 25.7804 825.303 25.7454 825.303 25.7098V23.4388C825.303 23.4043 825.294 23.3703 825.277 23.3401C825.26 23.31 825.236 23.2846 825.206 23.2663C825.177 23.2482 825.144 23.2379 825.109 23.2363C825.075 23.2347 825.041 23.242 825.01 23.2573C824.476 23.5273 823.961 23.6503 823.385 23.6503C822.497 23.6503 822.099 23.2453 822.099 22.3408V16.6048H825.146C825.173 16.6046 825.199 16.5992 825.224 16.5888C825.249 16.5784 825.271 16.5634 825.29 16.5444C825.309 16.5255 825.324 16.503 825.334 16.4784C825.344 16.4537 825.349 16.4274 825.349 16.4008V14.0158C825.349 13.9893 825.344 13.963 825.334 13.9384C825.324 13.9138 825.309 13.8915 825.29 13.8727C825.271 13.8539 825.249 13.8389 825.224 13.8287C825.199 13.8185 825.173 13.8133 825.146 13.8133V13.8148ZM835.758 13.8268V13.4443C835.758 12.3163 836.19 11.8123 837.158 11.8123C837.734 11.8123 838.199 11.9278 838.717 12.1018C838.748 12.1115 838.78 12.1138 838.812 12.1086C838.843 12.1034 838.873 12.0907 838.899 12.0718C838.925 12.0529 838.947 12.0281 838.961 11.9994C838.976 11.9707 838.984 11.939 838.984 11.9068V9.56978C838.984 9.52629 838.97 9.48383 838.944 9.44871C838.919 9.41359 838.882 9.38767 838.84 9.37478C838.095 9.14748 837.32 9.03615 836.541 9.04478C833.984 9.04478 832.631 10.4878 832.631 13.2148V13.8028H831.302C831.248 13.8032 831.196 13.8247 831.158 13.8626C831.12 13.9006 831.099 13.9518 831.099 14.0053V16.4023C831.099 16.5148 831.19 16.6063 831.302 16.6063H832.633V26.1223C832.633 26.2348 832.722 26.3248 832.834 26.3248H835.603C835.713 26.3248 835.804 26.2348 835.804 26.1223V16.6048H838.389L842.348 26.1178C841.899 27.1183 841.456 27.3178 840.854 27.3178C840.365 27.3178 839.852 27.1708 839.326 26.8828C839.301 26.8697 839.275 26.8617 839.247 26.8591C839.219 26.8565 839.192 26.8595 839.165 26.8678C839.139 26.877 839.115 26.8915 839.094 26.9103C839.074 26.9291 839.057 26.9519 839.046 26.9773L838.108 29.0398C838.086 29.0862 838.083 29.1392 838.099 29.1879C838.115 29.2366 838.149 29.2775 838.194 29.3023C839.093 29.8138 840.115 30.0759 841.152 30.0613C843.194 30.0613 844.324 29.1073 845.321 26.5393L850.123 14.1028C850.135 14.0719 850.139 14.0386 850.135 14.0057C850.132 13.9728 850.12 13.9413 850.101 13.9138C850.083 13.8867 850.058 13.8644 850.029 13.849C850 13.8335 849.968 13.8254 849.935 13.8253H847.053C847.011 13.8255 846.97 13.8387 846.935 13.8632C846.901 13.8876 846.875 13.9221 846.861 13.9618L843.909 22.4128L840.677 13.9558C840.662 13.9174 840.637 13.8844 840.603 13.861C840.569 13.8377 840.529 13.8252 840.487 13.8253H835.758V13.8268ZM829.606 13.8148H826.837C826.783 13.8156 826.732 13.8375 826.694 13.8757C826.657 13.9139 826.636 13.9653 826.636 14.0188V26.1223C826.636 26.2348 826.727 26.3248 826.839 26.3248H829.607C829.718 26.3248 829.808 26.2348 829.808 26.1223V14.0173C829.808 13.9638 829.787 13.9126 829.749 13.8746C829.711 13.8367 829.66 13.8152 829.606 13.8148ZM828.235 8.30378C827.706 8.30696 827.2 8.5182 826.828 8.89112C826.456 9.26405 826.248 9.76817 826.25 10.2928C826.249 10.5528 826.299 10.8105 826.398 11.0513C826.497 11.2921 826.643 11.5111 826.828 11.6959C827.012 11.8808 827.232 12.0278 827.473 12.1286C827.715 12.2293 827.974 12.2819 828.237 12.2833C828.766 12.2801 829.272 12.0687 829.645 11.6954C830.017 11.3222 830.224 10.8177 830.221 10.2928C830.221 9.19328 829.332 8.30378 828.237 8.30378H828.235ZM852.599 15.0193H852.092V15.6673H852.599C852.852 15.6673 853.003 15.5428 853.003 15.3433C853.003 15.1318 852.852 15.0193 852.599 15.0193ZM852.927 15.9433L853.48 16.7173H853.014L852.519 16.0078H852.092V16.7173H851.704V14.6668H852.614C853.089 14.6668 853.402 14.9113 853.402 15.3208C853.409 15.4632 853.365 15.6034 853.278 15.7171C853.192 15.8308 853.067 15.9109 852.927 15.9433ZM852.496 13.9858C851.498 13.9858 850.743 14.7808 850.743 15.7543C850.743 16.7263 851.493 17.5108 852.486 17.5108C853.484 17.5108 854.241 16.7158 854.241 15.7423C854.241 14.7703 853.489 13.9858 852.496 13.9858ZM852.486 17.7058C852.228 17.7052 851.974 17.6542 851.736 17.5556C851.499 17.4571 851.284 17.313 851.103 17.1316C850.922 16.9502 850.779 16.7352 850.682 16.4988C850.585 16.2624 850.536 16.0094 850.539 15.7543C850.539 14.6833 851.401 13.7908 852.496 13.7908C852.754 13.7914 853.008 13.8424 853.246 13.9409C853.483 14.0395 853.698 14.1836 853.879 14.3649C854.06 14.5463 854.203 14.7614 854.3 14.9978C854.397 15.2341 854.445 15.4872 854.443 15.7423C854.443 16.8133 853.581 17.7073 852.486 17.7073V17.7058Z" fill="black"/>
</svg>
